<?xml version="1.0" encoding="UTF-8"?>
<svg width="1101px" height="730px" viewBox="0 0 1101 730" version="1.1" xmlns="http://www.w3.org/2000/svg" xmlns:xlink="http://www.w3.org/1999/xlink">
    <!-- Generator: Sketch 51.1 (57501) - http://www.bohemiancoding.com/sketch -->
    <title>Group 4</title>
    <desc>Created with Sketch.</desc>
    <defs></defs>
    <g id="Page-1" stroke="none" stroke-width="1" fill="none" fill-rule="evenodd">
        <g id="Group-4" transform="translate(-100.000000, 4.000000)" fill="#FFFFFF">
            <g id="White-logo-Copy-2" transform="translate(208.000000, 0.000000)" stroke="#FFFFFF" stroke-width="7">
                <path d="M433.1,0 C472.9,0 505.2,32.3 505.2,72.1 C505.2,111.9 472.9,144.2 433.1,144.2 C393.3,144.2 361,111.9 361,72.1 C361,32.3 393.3,0 433.1,0 Z M487.2,72.1 C487.2,42.2 463,18 433.1,18 C403.2,18 379,42.2 379,72.1 C379,102 403.2,126.2 433.1,126.2 C463,126.2 487.2,102 487.2,72.1 Z" id="Shape" fill-rule="nonzero"></path>
                <path d="M432.8,188 L731.6,543.7 C721,537.8 690.5,534.1 649.1,534.1 L432.8,260.1 L216.5,534.1 C175.1,534.1 144.6,537.8 134,543.7 L432.8,188 Z" id="Shape"></path>
                <path d="M432.5,563 C671.6,563 865,582.3 865,606.3 C865,590.4 671.5,577.5 432.5,577.5 C193.5,577.5 0,590.3 0,606.3 C0,582.4 193.4,563 432.5,563 Z" id="Shape" fill-rule="nonzero"></path>
            </g>
            <path d="M137.25,654.8 L165.45,724 L154.65,724 L147.55,706 L117.95,706 L110.85,724 L100.65,724 L128.75,654.8 L137.25,654.8 Z M120.65,697.9 L144.85,697.9 L132.75,666.9 L120.65,697.9 Z M240.55,688.4 L263.45,724 L251.75,724 L234.25,694.7 L216.85,724 L205.25,724 L228.05,688.4 L206.85,655 L218.25,655 L234.25,681.9 L250.35,655 L261.75,655 L240.55,688.4 Z M320.35,655 L320.35,724 L310.65,724 L310.65,655 L320.35,655 Z M442.65,689.6 C442.65,711.7 426.45,725.2 407.05,725.2 C387.65,725.2 371.45,711.7 371.45,689.6 C371.45,667.5 387.65,654 407.05,654 C426.45,654 442.65,667.5 442.65,689.6 Z M432.75,689.4 C432.75,672.5 421.15,662.4 407.05,662.4 C392.95,662.4 381.35,672.5 381.35,689.4 C381.35,706.2 393.05,716.4 407.05,716.4 C421.15,716.4 432.75,706.2 432.75,689.4 Z M560.75,655 L567.05,724 L557.45,724 L552.95,669.5 L552.65,669.5 L531.55,724.6 L526.05,724.6 L504.95,669.5 L504.65,669.5 L500.25,724 L490.65,724 L496.85,655 L508.85,655 L528.75,708.3 L528.95,708.3 L548.85,655 L560.75,655 Z M699.95,715.8 L699.95,724 L658.75,724 L658.75,655 L699.15,655 L699.15,663.1 L668.45,663.1 L668.45,683.7 L697.45,683.7 L697.45,691.8 L668.45,691.8 L668.45,715.8 L699.95,715.8 Z M779.25,688.4 L802.15,724 L790.45,724 L772.95,694.7 L755.55,724 L743.95,724 L766.75,688.4 L745.55,655 L756.95,655 L772.95,681.9 L789.05,655 L800.45,655 L779.25,688.4 Z M890.55,715.8 L890.55,724 L849.35,724 L849.35,655 L889.75,655 L889.75,663.1 L859.05,663.1 L859.05,683.7 L888.05,683.7 L888.05,691.8 L859.05,691.8 L859.05,715.8 L890.55,715.8 Z M969.35,693.3 L989.05,724 L977.35,724 L959.35,694.3 L951.95,694.3 L951.95,724 L942.25,724 L942.25,655 L961.75,655 C968.65,655 974.25,656.6 978.35,659.8 C982.45,663.1 985.05,668.1 985.05,674.4 C985.05,686.5 976.65,691.9 969.35,693.3 Z M975.05,674.6 C975.05,670.5 973.75,667.6 970.65,665.4 C967.55,663.1 963.85,662.9 959.05,662.9 L951.95,662.9 L951.95,686.3 L959.05,686.3 C963.85,686.3 967.55,686.1 970.65,683.9 C973.75,681.6 975.05,678.8 975.05,674.6 Z M1096.65,687.2 L1096.65,714 C1095.35,715.3 1086.95,725.2 1067.35,725.2 C1047.65,725.2 1032.15,711 1032.15,689.5 C1032.15,668 1047.65,654 1067.25,654 C1084.95,654 1092.55,663.3 1095.15,666 L1088.55,672.1 C1084.45,667.3 1078.05,662.3 1067.25,662.3 C1053.05,662.3 1042.15,672.5 1042.15,689.5 C1042.15,706.5 1053.45,716.7 1067.85,716.7 C1082.15,716.7 1087.25,710.4 1087.25,710.4 L1087.25,695.1 L1068.65,695.1 L1068.65,687.2 L1096.65,687.2 Z M1189.65,655 L1200.55,655 L1176.55,695.1 L1176.55,724 L1166.85,724 L1166.85,695.1 L1142.85,655 L1153.75,655 L1171.65,686.7 L1189.65,655 Z" id="A-X-I-O-M-E-X-E-R-G"></path>
        </g>
    </g>
</svg>